<?xml version="1.0" standalone="no"?>
<!DOCTYPE svg PUBLIC "-//W3C//DTD SVG 20010904//EN"
 "http://www.w3.org/TR/2001/REC-SVG-20010904/DTD/svg10.dtd">
<svg version="1.0" xmlns="http://www.w3.org/2000/svg"
 width="512.000000pt" height="512.000000pt" viewBox="0 0 512.000000 512.000000"
 preserveAspectRatio="xMidYMid meet">
<metadata>
Created by potrace 1.14, written by Peter Selinger 2001-2017
</metadata>
<g transform="translate(0.000000,512.000000) scale(0.100000,-0.100000)"
fill="#000000" stroke="none">
<path d="M1237 5086 c-19 -19 -37 -47 -40 -62 -3 -16 -5 -302 -4 -636 0 -334
-1 -609 -4 -610 -2 -2 -35 -19 -74 -38 -286 -142 -496 -443 -532 -760 -25
-218 19 -434 125 -622 87 -155 246 -307 402 -384 53 -26 79 -46 82 -59 2 -11
3 -423 2 -915 -2 -980 -4 -942 58 -980 33 -20 46 -20 1618 -20 1238 0 1590 3
1609 13 13 6 34 25 45 40 l21 28 2 2473 3 2473 -23 34 c-12 19 -34 39 -47 46
-20 10 -364 13 -1617 13 l-1592 0 -34 -34z"/>
</g>
</svg>
